<?xml version="1.0" standalone="no"?>
<!DOCTYPE svg PUBLIC "-//W3C//DTD SVG 20010904//EN"
 "http://www.w3.org/TR/2001/REC-SVG-20010904/DTD/svg10.dtd">
<svg version="1.0" xmlns="http://www.w3.org/2000/svg"
 width="891.000000pt" height="891.000000pt" viewBox="0 0 891.000000 891.000000"
 preserveAspectRatio="xMidYMid meet">

<g transform="translate(0.000000,891.000000) scale(0.100000,-0.100000)"
fill="#000000" stroke="none">
<path d="M4150 8894 c-19 -2 -87 -9 -150 -15 -775 -72 -1572 -385 -2215 -867
-308 -231 -650 -572 -879 -876 -431 -572 -719 -1240 -835 -1938 -48 -286 -56
-387 -56 -743 0 -356 8 -457 56 -743 129 -775 468 -1509 978 -2117 110 -132
378 -402 515 -518 616 -527 1357 -874 2148 -1006 286 -48 387 -56 743 -56 356
0 457 8 743 56 791 132 1532 479 2148 1006 137 116 405 386 515 518 510 608
849 1342 978 2117 48 286 56 387 56 743 0 356 -8 457 -56 743 -116 698 -404
1366 -835 1938 -229 304 -571 645 -879 876 -632 474 -1350 760 -2165 864 -118
15 -720 28 -810 18z m2209 -2683 c33 -10 80 -30 103 -44 103 -60 190 -194 208
-319 12 -83 12 -2703 0 -2786 -18 -125 -105 -259 -208 -319 -23 -14 -70 -34
-103 -44 -59 -18 -127 -19 -1904 -19 -1777 0 -1845 1 -1904 19 -33 10 -80 30
-103 44 -102 59 -191 195 -207 314 -5 32 -5 686 -2 1453 l6 1395 31 65 c56
117 152 202 272 241 54 17 141 18 1904 18 1781 1 1848 0 1907 -18z"/>
<path d="M2686 5782 c35 -32 1753 -1096 1769 -1096 16 0 1734 1064 1770 1096
5 4 -792 8 -1770 8 -978 0 -1775 -4 -1769 -8z"/>
<path d="M2670 4230 l0 -1110 1785 0 1785 0 0 1110 c0 658 -4 1110 -9 1110 -5
0 -402 -246 -883 -547 -480 -301 -882 -547 -893 -547 -11 0 -413 246 -893 547
-481 301 -878 547 -883 547 -5 0 -9 -452 -9 -1110z"/>
</g>
</svg>
