<svg xmlns="http://www.w3.org/2000/svg"><symbol viewBox="0 0 511.53806 565.80035" id="InlineSprite"><symbol viewBox="0 0 380.00134 333.51334" id="api-page-svgrepo-com"><g><path d="M91.425,157.435c-1.065-2.297-3.366-3.767-5.897-3.767c-0.005,0-0.01,0-0.015,0c-2.537,0.006-4.839,1.487-5.895,3.794   L47.402,227.83c-1.494,3.264-0.06,7.122,3.204,8.616c0.877,0.401,1.797,0.591,2.702,0.591c2.464,0,4.821-1.409,5.914-3.796   l8.08-17.649h36.75l8.193,17.677c1.51,3.257,5.373,4.674,8.631,3.164c3.257-1.51,4.673-5.374,3.164-8.631L91.425,157.435z    M73.254,202.592l12.311-26.888l12.462,26.888H73.254z"/><path d="M166.496,152.865H135.07c-3.59,0-6.5,2.91-6.5,6.5v71.17c0,3.59,2.91,6.5,6.5,6.5c3.59,0,6.5-2.91,6.5-6.5V203.5h24.926   c13.96,0,25.316-11.357,25.316-25.316C191.813,164.223,180.456,152.865,166.496,152.865z M166.496,190.5H141.57v-24.635h24.926   c6.792,0,12.316,5.526,12.316,12.318C178.813,184.975,173.288,190.5,166.496,190.5z"/><path d="M203.313,152.865c-3.59,0-6.5,2.91-6.5,6.5v71.17c0,3.59,2.91,6.5,6.5,6.5s6.5-2.91,6.5-6.5v-71.17   C209.813,155.775,206.902,152.865,203.313,152.865z"/><path d="M368.317,46.487H11.684C5.241,46.487,0,51.73,0,58.173v263.656c0,6.442,5.241,11.684,11.684,11.684h356.634   c6.442,0,11.683-5.242,11.683-11.684V58.173C380,51.73,374.76,46.487,368.317,46.487z M280.949,259.268   c5.162-12.192,17.053-20.07,30.295-20.07c4.411,0,8.721,0.878,12.813,2.61c16.696,7.072,24.529,26.408,17.461,43.105   c-5.167,12.191-17.058,20.068-30.294,20.068c0,0,0,0-0.001,0c-4.411,0-8.721-0.878-12.81-2.611   c-8.089-3.424-14.361-9.793-17.659-17.935C277.455,276.294,277.524,267.356,280.949,259.268z M320.868,79.771   c6.844,0,12.387,5.547,12.387,12.387c0,6.842-5.543,12.387-12.387,12.387c-6.839,0-12.385-5.545-12.385-12.387   C308.483,85.318,314.029,79.771,320.868,79.771z M283.715,79.771c6.839,0,12.386,5.547,12.386,12.387   c0,6.842-5.547,12.387-12.386,12.387c-6.839,0-12.387-5.545-12.387-12.387C271.328,85.318,276.876,79.771,283.715,79.771z    M246.561,79.771c6.839,0,12.381,5.547,12.381,12.387c0,6.842-5.542,12.387-12.381,12.387c-6.844,0-12.387-5.545-12.387-12.387   C234.175,85.318,239.718,79.771,246.561,79.771z M21.27,314.01V141.424H358.73v67.274c-1.537-2.202-3.677-4.02-6.327-5.143   l-20.614-8.726c-1.835-0.778-3.771-1.172-5.754-1.172c-5.956,0-11.303,3.54-13.623,9.02l-1.253,2.959   c-9.227,0.129-18.381,2.255-26.728,6.193l-2.426-2.107c-1.174-1.018-2.499-1.841-3.932-2.447c-1.841-0.779-3.782-1.174-5.771-1.174   c-4.276,0-8.341,1.858-11.154,5.099l-14.671,16.915c-2.583,2.986-3.855,6.794-3.581,10.735c0.285,3.941,2.084,7.535,5.064,10.115   l2.417,2.098c-2.755,8.849-3.563,18.179-2.365,27.344l-2.749,1.654c-6.981,4.2-9.242,13.302-5.039,20.293L249.044,315H22.26   C21.714,315,21.27,314.556,21.27,314.01z"/></g></symbol><symbol viewBox="0 0 256 211.23732" id="bem-svgrepo-com">
	<g fill="#010101">
		<path d="M0,32.6915521 L59.8506876,32.6915521 L59.8506876,50.2946955 L0,50.2946955 L0,32.6915521 Z M0,0 L59.8506876,0 L59.8506876,17.6031434 L0,17.6031434 L0,0 Z M107.379175,65.1316306 L0,65.1316306 L0,82.7347741 L103.355599,82.7347741 C114.671906,82.7347741 141.076621,82.9862475 150.884086,98.8290766 L150.884086,89.021611 C146.10609,73.4302554 132.023576,65.1316306 107.379175,65.1316306 L107.379175,65.1316306 Z M107.630648,97.8231827 L1.42108547e-14,97.8231827 L1.42108547e-14,115.426326 L103.355599,115.426326 C128.502947,115.426326 144.345776,116.43222 150.884086,119.952849 L150.884086,112.157171 C145.854617,99.8349705 124.730845,97.8231827 107.630648,97.8231827 L107.630648,97.8231827 Z M107.379175,180.80943 L0,180.80943 L0,163.206287 L103.355599,163.206287 C114.671906,163.206287 141.076621,162.954813 150.884086,147.111984 L150.884086,156.91945 C146.10609,172.510806 132.023576,180.80943 107.379175,180.80943 L107.379175,180.80943 Z M107.630648,148.117878 L1.42108547e-14,148.117878 L1.42108547e-14,130.514735 L103.355599,130.514735 C128.502947,130.514735 144.345776,129.508841 150.884086,125.988212 L150.884086,133.78389 C145.854617,146.10609 124.730845,148.117878 107.630648,148.117878 L107.630648,148.117878 Z M177.037328,211.237721 L256,211.237721 L256,200.424361 L179.300589,200.424361 C172.510806,200.424361 156.416503,200.172888 150.632613,190.868369 L150.632613,196.903733 C153.398821,206.208251 161.948919,211.237721 177.037328,211.237721 L177.037328,211.237721 Z M176.785855,191.371316 L255.748527,191.371316 L255.748527,180.557957 L179.300589,180.557957 C163.960707,180.557957 154.404715,180.05501 150.632613,177.791749 L150.632613,182.569745 C153.650295,190.113949 166.475442,191.371316 176.785855,191.371316 L176.785855,191.371316 Z">

</path>
	</g>
</symbol><symbol viewBox="0 0 511.53806 313.095" id="nodejs">
    <defs>
        <linearGradient x1="68.1884411%" y1="17.4868311%" x2="27.8226935%" y2="89.7551419%" id="linearGradient-1">
            <stop stop-color="#41873F" offset="0%"/>
            <stop stop-color="#418B3D" offset="32.88%"/>
            <stop stop-color="#419637" offset="63.52%"/>
            <stop stop-color="#3FA92D" offset="93.19%"/>
            <stop stop-color="#3FAE2A" offset="100%"/>
        </linearGradient>
        <path id="path-2" d="M57.903386,1.84920993 C56.0541761,0.809029345 53.8582393,0.809029345 52.0090293,1.84920993 L3.351693,29.9340858 C1.50248307,30.9742664 0.462302483,32.9390519 0.462302483,35.0194131 L0.462302483,91.3047404 C0.462302483,93.3851016 1.61805869,95.3498871 3.351693,96.3900677 L52.0090293,124.474944 C53.8582393,125.515124 56.0541761,125.515124 57.903386,124.474944 L106.560722,96.3900677 C108.409932,95.3498871 109.450113,93.3851016 109.450113,91.3047404 L109.450113,35.0194131 C109.450113,32.9390519 108.294357,30.9742664 106.560722,29.9340858 L57.903386,1.84920993 L57.903386,1.84920993 Z"/>
        <linearGradient x1="43.2765472%" y1="55.168777%" x2="159.245277%" y2="-18.3061379%" id="linearGradient-4">
            <stop stop-color="#41873F" offset="13.76%"/>
            <stop stop-color="#54A044" offset="40.32%"/>
            <stop stop-color="#66B848" offset="71.36%"/>
            <stop stop-color="#6CC04A" offset="90.81%"/>
        </linearGradient>
        <linearGradient x1="-4413.77%" y1="13.43%" x2="5327.93%" y2="13.43%" id="linearGradient-5">
            <stop stop-color="#6CC04A" offset="9.191646%"/>
            <stop stop-color="#66B848" offset="28.64%"/>
            <stop stop-color="#54A044" offset="59.68%"/>
            <stop stop-color="#41873F" offset="86.24%"/>
        </linearGradient>
        <linearGradient x1="-4.38880435%" y1="49.9972065%" x2="101.499239%" y2="49.9972065%" id="linearGradient-6">
            <stop stop-color="#6CC04A" offset="9.191646%"/>
            <stop stop-color="#66B848" offset="28.64%"/>
            <stop stop-color="#54A044" offset="59.68%"/>
            <stop stop-color="#41873F" offset="86.24%"/>
        </linearGradient>
        <linearGradient x1="-9713.77%" y1="36.21%" x2="27.93%" y2="36.21%" id="linearGradient-7">
            <stop stop-color="#6CC04A" offset="9.191646%"/>
            <stop stop-color="#66B848" offset="28.64%"/>
            <stop stop-color="#54A044" offset="59.68%"/>
            <stop stop-color="#41873F" offset="86.24%"/>
        </linearGradient>
        <linearGradient x1="-103.860714%" y1="50.2754209%" x2="100.796849%" y2="50.2754209%" id="linearGradient-8">
            <stop stop-color="#6CC04A" offset="9.191646%"/>
            <stop stop-color="#66B848" offset="28.64%"/>
            <stop stop-color="#54A044" offset="59.68%"/>
            <stop stop-color="#41873F" offset="86.24%"/>
        </linearGradient>
        <linearGradient x1="130.613025%" y1="-211.06936%" x2="4.39327731%" y2="201.605387%" id="linearGradient-9">
            <stop stop-color="#41873F" offset="0%"/>
            <stop stop-color="#418B3D" offset="32.88%"/>
            <stop stop-color="#419637" offset="63.52%"/>
            <stop stop-color="#3FA92D" offset="93.19%"/>
            <stop stop-color="#3FAE2A" offset="100%"/>
        </linearGradient>
    </defs>
	<g fill="none">
		<path d="M253.110609,313.094357 C251.376975,313.094357 249.758916,312.632054 248.256433,311.823025 L232.884876,302.692551 C230.573363,301.421219 231.72912,300.958916 232.422573,300.727765 C235.543115,299.687585 236.120993,299.456433 239.357111,297.607223 C239.703837,297.376072 240.16614,297.491648 240.512867,297.722799 L252.30158,304.772912 C252.763883,305.004063 253.341761,305.004063 253.688488,304.772912 L299.80316,278.074944 C300.265463,277.843792 300.496614,277.38149 300.496614,276.803612 L300.496614,223.523251 C300.496614,222.945372 300.265463,222.48307 299.80316,222.251919 L253.688488,195.669526 C253.226185,195.438375 252.648307,195.438375 252.30158,195.669526 L206.186907,222.251919 C205.724605,222.48307 205.493454,223.060948 205.493454,223.523251 L205.493454,276.803612 C205.493454,277.265914 205.724605,277.843792 206.186907,278.074944 L218.78465,285.356208 C225.603612,288.823476 229.87991,284.77833 229.87991,280.733183 L229.87991,228.146275 C229.87991,227.452822 230.457788,226.759368 231.266817,226.759368 L237.161174,226.759368 C237.854628,226.759368 238.548081,227.337246 238.548081,228.146275 L238.548081,280.733183 C238.548081,289.863657 233.57833,295.180135 224.910158,295.180135 C222.251919,295.180135 220.171558,295.180135 214.277201,292.290745 L202.141761,285.356208 C199.136795,283.622573 197.287585,280.386456 197.287585,276.919187 L197.287585,223.638826 C197.287585,220.171558 199.136795,216.93544 202.141761,215.201806 L248.256433,188.503837 C251.145824,186.885779 255.075395,186.885779 257.964786,188.503837 L304.079458,215.201806 C307.084424,216.93544 308.933634,220.171558 308.933634,223.638826 L308.933634,276.919187 C308.933634,280.386456 307.084424,283.622573 304.079458,285.356208 L257.964786,312.054176 C256.462302,312.74763 254.728668,313.094357 253.110609,313.094357 Z M267.326411,276.456885 C247.100677,276.456885 242.939955,267.210835 242.939955,259.351693 C242.939955,258.658239 243.517833,257.964786 244.326862,257.964786 L250.336795,257.964786 C251.030248,257.964786 251.608126,258.427088 251.608126,259.120542 C252.532731,265.24605 255.190971,268.251016 267.441986,268.251016 C277.150339,268.251016 281.311061,266.055079 281.311061,260.854176 C281.311061,257.84921 280.155305,255.653273 265.014898,254.15079 C252.417156,252.879458 244.558014,250.105643 244.558014,240.050564 C244.558014,230.688939 252.417156,225.141309 265.592777,225.141309 C280.386456,225.141309 287.66772,230.226637 288.592325,241.321896 C288.592325,241.668623 288.476749,242.01535 288.245598,242.362077 C288.014447,242.593228 287.66772,242.824379 287.320993,242.824379 L281.311061,242.824379 C280.733183,242.824379 280.155305,242.362077 280.039729,241.784199 C278.652822,235.42754 275.069977,233.347178 265.592777,233.347178 C254.959819,233.347178 253.688488,237.045598 253.688488,239.819413 C253.688488,243.171106 255.190971,244.211287 269.522348,246.060497 C283.738149,247.909707 290.441535,250.567946 290.441535,260.507449 C290.325959,270.678104 282.004515,276.456885 267.326411,276.456885 Z" fill="#539E43"/>
		<path d="M110.027991,104.711512 C110.027991,102.631151 108.872235,100.666366 107.023025,99.6261851 L58.0189616,71.4257336 C57.2099323,70.9634312 56.2853273,70.7322799 55.3607223,70.6167043 L54.8984199,70.6167043 C53.9738149,70.6167043 53.0492099,70.9634312 52.2401806,71.4257336 L3.23611738,99.6261851 C1.38690745,100.666366 0.231151242,102.631151 0.231151242,104.711512 L0.346726862,180.52912 C0.346726862,181.5693 0.924604966,182.609481 1.84920993,183.071783 C2.7738149,183.649661 3.92957111,183.649661 4.73860045,183.071783 L33.8636569,166.428894 C35.7128668,165.388713 36.868623,163.423928 36.868623,161.343567 L36.868623,125.861851 C36.868623,123.78149 38.0243792,121.816704 39.8735892,120.776524 L52.2401806,113.610835 C53.1647856,113.032957 54.2049661,112.801806 55.2451467,112.801806 C56.2853273,112.801806 57.3255079,113.032957 58.1345372,113.610835 L70.5011287,120.776524 C72.3503386,121.816704 73.5060948,123.78149 73.5060948,125.861851 L73.5060948,161.343567 C73.5060948,163.423928 74.661851,165.388713 76.5110609,166.428894 L105.636117,183.071783 C106.560722,183.649661 107.716479,183.649661 108.641084,183.071783 C109.565688,182.609481 110.143567,181.5693 110.143567,180.52912 L110.027991,104.711512 L110.027991,104.711512 Z" fill="#333333"/>
		<path d="M345.571106,0.346726862 C344.646501,-0.115575621 343.490745,-0.115575621 342.681716,0.346726862 C341.757111,0.924604966 341.179233,1.84920993 341.179233,2.88939052 L341.179233,78.013544 C341.179233,78.7069977 340.832506,79.4004515 340.139052,79.862754 C339.445598,80.2094808 338.752144,80.2094808 338.058691,79.862754 L325.807675,72.8126411 C323.958465,71.7724605 321.762528,71.7724605 319.913318,72.8126411 L270.909255,101.128668 C269.060045,102.168849 267.904289,104.133634 267.904289,106.213995 L267.904289,162.730474 C267.904289,164.810835 269.060045,166.775621 270.909255,167.815801 L319.913318,196.131828 C321.762528,197.172009 323.958465,197.172009 325.807675,196.131828 L374.811738,167.815801 C376.660948,166.775621 377.816704,164.810835 377.816704,162.730474 L377.816704,21.8437923 C377.816704,19.6478555 376.660948,17.68307 374.811738,16.6428894 L345.571106,0.346726862 L345.571106,0.346726862 Z M341.063657,144.122799 C341.063657,144.700677 340.832506,145.16298 340.370203,145.394131 L323.611738,155.102483 C323.149436,155.333634 322.571558,155.333634 322.109255,155.102483 L305.35079,145.394131 C304.888488,145.16298 304.657336,144.585102 304.657336,144.122799 L304.657336,124.706095 C304.657336,124.128217 304.888488,123.665914 305.35079,123.434763 L322.109255,113.726411 C322.571558,113.49526 323.149436,113.49526 323.611738,113.726411 L340.370203,123.434763 C340.832506,123.665914 341.063657,124.243792 341.063657,124.706095 L341.063657,144.122799 L341.063657,144.122799 Z" fill="#333333"/>
		<g transform="translate(401.047404, 70.501129)">
			<path d="M107.600903,53.7426637 C109.450113,52.7024831 110.490293,50.7376975 110.490293,48.6573363 L110.490293,34.9038375 C110.490293,32.8234763 109.334537,30.8586907 107.600903,29.8185102 L58.9435666,1.61805869 C57.0943567,0.577878104 54.8984199,0.577878104 53.0492099,1.61805869 L4.04514673,29.9340858 C2.19593679,30.9742664 1.04018059,32.9390519 1.04018059,35.0194131 L1.04018059,91.5358916 C1.04018059,93.6162528 2.19593679,95.5810384 4.04514673,96.621219 L52.7024831,124.359368 C54.551693,125.399549 56.7476298,125.399549 58.4812641,124.359368 L87.9530474,107.94763 C88.8776524,107.485327 89.4555305,106.445147 89.4555305,105.404966 C89.4555305,104.364786 88.8776524,103.324605 87.9530474,102.862302 L38.717833,74.5462754 C37.793228,73.9683973 37.2153499,73.0437923 37.2153499,72.0036117 L37.2153499,54.3205418 C37.2153499,53.2803612 37.793228,52.2401806 38.717833,51.7778781 L54.0893905,42.9941309 C55.0139955,42.4162528 56.1697517,42.4162528 57.0943567,42.9941309 L72.4659142,51.7778781 C73.3905192,52.3557562 73.9683973,53.2803612 73.9683973,54.3205418 L73.9683973,68.1896163 C73.9683973,69.2297968 74.5462754,70.2699774 75.4708804,70.7322799 C76.3954853,71.310158 77.5512415,71.310158 78.4758465,70.7322799 L107.600903,53.7426637 L107.600903,53.7426637 Z" fill="#333333"/>
			<path d="M55.2451467,51.0844244 C55.5918736,50.8532731 56.0541761,50.8532731 56.4009029,51.0844244 L65.7625282,56.5164786 C66.1092551,56.7476298 66.3404063,57.0943567 66.3404063,57.5566591 L66.3404063,68.4207675 C66.3404063,68.88307 66.1092551,69.2297968 65.7625282,69.4609481 L56.4009029,74.8930023 C56.0541761,75.1241535 55.5918736,75.1241535 55.2451467,74.8930023 L45.8835214,69.4609481 C45.5367946,69.2297968 45.3056433,68.88307 45.3056433,68.4207675 L45.3056433,57.5566591 C45.3056433,57.0943567 45.5367946,56.7476298 45.8835214,56.5164786 L55.2451467,51.0844244 L55.2451467,51.0844244 Z" fill="#539E43"/>
		</g>
		<g transform="translate(134.067720, 70.501129)">
			<mask id="mask-3" fill="white">
				<use xmlns:ns1="http://www.w3.org/1999/xlink" ns1:href="#path-2"/>
			</mask>
			<use fill="url(#linearGradient-1)" xmlns:ns1="http://www.w3.org/1999/xlink" ns1:href="#path-2"/>
			<g mask="url(#mask-3)">
				<path d="M51.8934537,1.84920993 L3.12054176,29.9340858 C1.27133183,30.9742664 0,32.9390519 0,35.0194131 L0,91.3047404 C0,92.6916479 0.577878104,93.9629797 1.50248307,95.0031603 L56.2853273,1.15575621 C54.8984199,0.924604966 53.2803612,1.04018059 51.8934537,1.84920993 L51.8934537,1.84920993 Z"/>
				<path d="M56.6320542,125.052822 C57.0943567,124.937246 57.5566591,124.706095 58.0189616,124.474944 L106.791874,96.3900677 C108.641084,95.3498871 109.79684,93.3851016 109.79684,91.3047404 L109.79684,35.0194131 C109.79684,33.51693 109.103386,32.014447 108.063205,30.9742664 L56.6320542,125.052822 L56.6320542,125.052822 Z"/>
				<path d="M106.676298,29.9340858 L57.7878104,1.84920993 C57.3255079,1.61805869 56.7476298,1.38690745 56.2853273,1.27133183 L1.50248307,95.1187359 C1.96478555,95.696614 2.54266366,96.1589165 3.12054176,96.5056433 L52.0090293,124.590519 C53.3959368,125.399549 55.0139955,125.6307 56.5164786,125.168397 L107.94763,31.089842 C107.600903,30.6275395 107.1386,30.2808126 106.676298,29.9340858 L106.676298,29.9340858 Z" fill="url(#linearGradient-4)"/>
			</g>
			<g mask="url(#mask-3)">
				<g transform="translate(0.000000, -9.246050)">
					<path d="M109.79684,100.55079 L109.79684,44.2654628 C109.79684,42.1851016 108.525508,40.220316 106.676298,39.1801354 L57.7878104,11.0952596 C57.2099323,10.7485327 56.6320542,10.5173815 55.9386005,10.4018059 L109.450113,101.822122 C109.681264,101.475395 109.79684,101.013093 109.79684,100.55079 L109.79684,100.55079 Z" fill="none"/>
					<path d="M3.12054176,39.1801354 C1.27133183,40.220316 0,42.1851016 0,44.2654628 L0,100.55079 C0,102.631151 1.38690745,104.595937 3.12054176,105.636117 L52.0090293,133.720993 C53.1647856,134.414447 54.4361174,134.645598 55.8230248,134.414447 L3.46726862,39.0645598 L3.12054176,39.1801354 L3.12054176,39.1801354 Z" fill="none"/>
					<path fill="url(#linearGradient-5)" fill-rule="evenodd" d="M50.3909707,0.809029345 L49.6975169,1.15575621 L50.6221219,1.15575621 L50.3909707,0.809029345 Z"/>
					<path d="M106.791874,105.636117 C108.178781,104.827088 109.218962,103.440181 109.681264,101.937698 L56.0541761,10.4018059 C54.6672686,10.1706546 53.1647856,10.2862302 51.8934537,11.0952596 L3.351693,39.0645598 L55.7074492,134.530023 C56.4009029,134.414447 57.2099323,134.183296 57.903386,133.836569 L106.791874,105.636117 L106.791874,105.636117 Z" fill="url(#linearGradient-6)" fill-rule="evenodd"/>
					<path fill="url(#linearGradient-7)" fill-rule="evenodd" d="M111.299323,104.711512 L110.952596,104.133634 L110.952596,104.942664 L111.299323,104.711512 Z"/>
					<path d="M106.791874,105.636117 L58.0189616,133.720993 C57.3255079,134.06772 56.6320542,134.298871 55.8230248,134.414447 L56.7476298,136.148081 L110.83702,104.827088 L110.83702,104.133634 L109.450113,101.822122 C109.218962,103.440181 108.178781,104.827088 106.791874,105.636117 L106.791874,105.636117 Z" fill="url(#linearGradient-8)" fill-rule="evenodd"/>
					<path d="M106.791874,105.636117 L58.0189616,133.720993 C57.3255079,134.06772 56.6320542,134.298871 55.8230248,134.414447 L56.7476298,136.148081 L110.83702,104.827088 L110.83702,104.133634 L109.450113,101.822122 C109.218962,103.440181 108.178781,104.827088 106.791874,105.636117 L106.791874,105.636117 Z" fill="url(#linearGradient-9)" fill-rule="evenodd"/>
				</g>
			</g>
		</g>
	</g>
</symbol><symbol viewBox="0 0 256 227.76213" id="react">
    <g>
        <path d="M210.483381,73.8236374 C207.827698,72.9095503 205.075867,72.0446761 202.24247,71.2267368 C202.708172,69.3261098 203.135596,67.4500894 203.515631,65.6059664 C209.753843,35.3248922 205.675082,10.9302478 191.747328,2.89849283 C178.392359,-4.80289661 156.551327,3.22703567 134.492936,22.4237776 C132.371761,24.2697233 130.244662,26.2241201 128.118477,28.2723861 C126.701777,26.917204 125.287358,25.6075897 123.876584,24.3549348 C100.758745,3.82852863 77.5866802,-4.82157937 63.6725966,3.23341515 C50.3303869,10.9571328 46.3792156,33.8904224 51.9945178,62.5880206 C52.5367729,65.3599011 53.1706189,68.1905639 53.8873982,71.068617 C50.6078941,71.9995641 47.4418534,72.9920277 44.4125156,74.0478303 C17.3093297,83.497195 0,98.3066828 0,113.667995 C0,129.533287 18.5815786,145.446423 46.8116526,155.095373 C49.0394553,155.856809 51.3511025,156.576778 53.7333796,157.260293 C52.9600965,160.37302 52.2875179,163.423318 51.7229345,166.398431 C46.3687351,194.597975 50.5500231,216.989464 63.8566899,224.664425 C77.6012619,232.590464 100.66852,224.443422 123.130185,204.809231 C124.905501,203.257196 126.687196,201.611293 128.472081,199.886102 C130.785552,202.113904 133.095375,204.222319 135.392897,206.199955 C157.14963,224.922338 178.637969,232.482469 191.932332,224.786092 C205.663234,216.837268 210.125675,192.78347 204.332202,163.5181 C203.88974,161.283006 203.374826,158.99961 202.796573,156.675661 C204.416503,156.196743 206.006814,155.702335 207.557482,155.188332 C236.905331,145.46465 256,129.745175 256,113.667995 C256,98.2510906 238.132466,83.3418093 210.483381,73.8236374 L210.483381,73.8236374 Z M204.118035,144.807565 C202.718197,145.270987 201.281904,145.718918 199.818271,146.153177 C196.578411,135.896354 192.205739,124.989735 186.854729,113.72131 C191.961041,102.721277 196.164656,91.9540963 199.313837,81.7638014 C201.93261,82.5215915 204.474374,83.3208483 206.923636,84.1643056 C230.613348,92.3195488 245.063763,104.377206 245.063763,113.667995 C245.063763,123.564379 229.457753,136.411268 204.118035,144.807565 L204.118035,144.807565 Z M193.603754,165.642007 C196.165567,178.582766 196.531475,190.282717 194.834536,199.429057 C193.309843,207.64764 190.243595,213.12715 186.452366,215.321689 C178.384612,219.991462 161.131788,213.921395 142.525146,197.909832 C140.392124,196.074366 138.243609,194.114502 136.088259,192.040261 C143.301619,184.151133 150.510878,174.979732 157.54698,164.793993 C169.922699,163.695814 181.614905,161.900447 192.218042,159.449363 C192.740247,161.555956 193.204126,163.621993 193.603754,165.642007 L193.603754,165.642007 Z M87.2761866,214.514686 C79.3938934,217.298414 73.1160375,217.378157 69.3211631,215.189998 C61.2461189,210.532528 57.8891498,192.554265 62.4682434,168.438039 C62.9927272,165.676183 63.6170041,162.839142 64.3365173,159.939216 C74.8234575,162.258154 86.4299951,163.926841 98.8353334,164.932519 C105.918826,174.899534 113.336329,184.06091 120.811247,192.08264 C119.178102,193.65928 117.551336,195.16028 115.933685,196.574699 C106.001303,205.256705 96.0479605,211.41654 87.2761866,214.514686 L87.2761866,214.514686 Z M50.3486141,144.746959 C37.8658105,140.48046 27.5570398,134.935332 20.4908634,128.884403 C14.1414664,123.446815 10.9357817,118.048415 10.9357817,113.667995 C10.9357817,104.34622 24.8334611,92.4562517 48.0123604,84.3748281 C50.8247961,83.3942121 53.7689223,82.4701001 56.8242337,81.6020363 C60.0276398,92.0224477 64.229889,102.917218 69.3011135,113.93411 C64.1642716,125.11459 59.9023288,136.182975 56.6674809,146.725506 C54.489347,146.099407 52.3791089,145.440499 50.3486141,144.746959 L50.3486141,144.746959 Z M62.7270678,60.4878073 C57.9160346,35.9004118 61.1112387,17.3525532 69.1516515,12.6982729 C77.7160924,7.74005624 96.6544653,14.8094222 116.614922,32.5329619 C117.890816,33.6657739 119.171723,34.8514442 120.456275,36.0781256 C113.018267,44.0647686 105.66866,53.1573386 98.6480514,63.0655695 C86.6081646,64.1815215 75.0831931,65.9741531 64.4868907,68.3746571 C63.8206914,65.6948233 63.2305903,63.0619242 62.7270678,60.4878073 L62.7270678,60.4878073 Z M173.153901,87.7550367 C170.620796,83.3796304 168.020249,79.1076627 165.369124,74.9523483 C173.537126,75.9849113 181.362914,77.3555864 188.712066,79.0329319 C186.505679,86.1041206 183.755673,93.4974728 180.518546,101.076741 C178.196419,96.6680702 175.740322,92.2229454 173.153901,87.7550367 L173.153901,87.7550367 Z M128.122121,43.8938899 C133.166461,49.3588189 138.218091,55.4603279 143.186789,62.0803968 C138.179814,61.8439007 133.110868,61.720868 128.000001,61.720868 C122.937434,61.720868 117.905854,61.8411667 112.929865,62.0735617 C117.903575,55.515009 122.99895,49.4217021 128.122121,43.8938899 L128.122121,43.8938899 Z M82.8018984,87.830679 C80.2715265,92.2183886 77.8609975,96.6393627 75.5753239,101.068539 C72.3906004,93.5156998 69.6661103,86.0886276 67.440586,78.9171899 C74.7446255,77.2826781 82.5335049,75.9461789 90.6495601,74.9332099 C87.9610684,79.1268011 85.3391054,83.4302106 82.8018984,87.8297677 L82.8018984,87.830679 L82.8018984,87.830679 Z M90.8833221,153.182899 C82.4979621,152.247395 74.5919739,150.979704 67.289757,149.390303 C69.5508242,142.09082 72.3354636,134.505173 75.5876271,126.789657 C77.8792246,131.215644 80.2993228,135.638441 82.8451877,140.03572 L82.8456433,140.03572 C85.4388987,144.515476 88.1255676,148.90364 90.8833221,153.182899 L90.8833221,153.182899 Z M128.424691,184.213105 C123.24137,178.620587 118.071264,172.434323 113.021912,165.780078 C117.923624,165.972373 122.921029,166.0708 128.000001,166.0708 C133.217953,166.0708 138.376211,165.953235 143.45336,165.727219 C138.468257,172.501308 133.434855,178.697141 128.424691,184.213105 L128.424691,184.213105 Z M180.622896,126.396409 C184.044571,134.195313 186.929004,141.741317 189.219234,148.9164 C181.796719,150.609693 173.782736,151.973534 165.339049,152.986959 C167.996555,148.775595 170.619884,144.430263 173.197646,139.960532 C175.805484,135.438399 178.28163,130.90943 180.622896,126.396409 L180.622896,126.396409 Z M163.724586,134.496971 C159.722835,141.435557 155.614455,148.059271 151.443648,154.311611 C143.847063,154.854776 135.998946,155.134562 128.000001,155.134562 C120.033408,155.134562 112.284171,154.887129 104.822013,154.402745 C100.48306,148.068386 96.285368,141.425078 92.3091341,134.556664 L92.3100455,134.556664 C88.3442923,127.706935 84.6943232,120.799333 81.3870228,113.930466 C84.6934118,107.045648 88.3338117,100.130301 92.276781,93.292874 L92.2758697,93.294241 C96.2293193,86.4385872 100.390102,79.8276317 104.688954,73.5329157 C112.302398,72.9573964 120.109505,72.6571055 127.999545,72.6571055 L128.000001,72.6571055 C135.925583,72.6571055 143.742714,72.9596746 151.353879,73.5402067 C155.587114,79.7888993 159.719645,86.3784378 163.688588,93.2350031 C167.702644,100.168578 171.389978,107.037901 174.724618,113.77508 C171.400003,120.627999 167.720871,127.566587 163.724586,134.496971 L163.724586,134.496971 Z M186.284677,12.3729198 C194.857321,17.3165548 198.191049,37.2542268 192.804953,63.3986692 C192.461372,65.0669011 192.074504,66.7661189 191.654369,68.4881206 C181.03346,66.0374921 169.500286,64.2138746 157.425315,63.0810626 C150.391035,53.0639249 143.101577,43.9572289 135.784778,36.073113 C137.751934,34.1806885 139.716356,32.3762092 141.672575,30.673346 C160.572216,14.2257007 178.236518,7.73185406 186.284677,12.3729198 L186.284677,12.3729198 Z M128.000001,90.8080696 C140.624975,90.8080696 150.859926,101.042565 150.859926,113.667995 C150.859926,126.292969 140.624975,136.527922 128.000001,136.527922 C115.375026,136.527922 105.140075,126.292969 105.140075,113.667995 C105.140075,101.042565 115.375026,90.8080696 128.000001,90.8080696 L128.000001,90.8080696 Z" fill="#00D8FF"/>
    </g>
</symbol><symbol viewBox="0 0 481 565.80005" id="sprite">
  <symbol aria-label="HTML5" role="img" viewBox="0 0 512 512" id="html5">
    <path fill="#e34f26" d="M71 460L30 0h451l-41 460-185 52"/>
    <path fill="#ef652a" d="M256 472l149-41 35-394H256"/>
    <path fill="#ebebeb" d="M256 208h-75l-5-58h80V94H114l15 171h127zm-1 147l-63-17-4-45h-56l7 89 116 32z"/>
    <path fill="#fff" d="M255 208v57h70l-7 73-63 17v59l116-32 16-174zm0-114v56h137l5-56z"/>
  </symbol>

  <symbol viewBox="0 0 24 24" id="npm">
    <g fill="none" fill-rule="evenodd">
      <rect width="24" height="24" fill="#D40001"/>
      <path fill="#FFF" d="M16.7179487,7.92840493 L12.2051282,7.92840493 L12.2051282,20.2494172 L4,20.2494172 L4,3 L12.2051282,3 L20,3 L20,7.92840493 L20,20.2494172 L16.7179487,20.2494172 L16.7179487,7.92840493 Z"/>
    </g>
  </symbol>

  <symbol preserveAspectRatio="xMinYMin meet" viewBox="-155 0 566 566" id="gulp">
    <path d="M197.28 548.749l5.427-90.43 14.985-25.58s-34.106 13.952-91.205 13.952c-57.1 0-90.689-13.694-90.689-13.694l16.794 27.904 5.941 87.848c0 9.418 31.059 17.052 69.374 17.052 38.313 0 69.373-7.634 69.373-17.052M180.161 126.454l11.391-45.025 63.081-66.376L238.007.892l-66.784 70.707-13.226 53.793a886.14 886.14 0 0 0-29.873-.497c-70.336 0-127.355 8.016-127.355 17.902 0 9.887 57.019 17.902 127.355 17.902 70.335 0 127.353-8.015 127.353-17.902 0-7.28-30.924-13.546-75.316-16.343" fill="#D34A47"/>
    <path d="M173.535 151.669s-2.467.553-9.724.584c-7.259.03-12.413-.047-14.466-1.917-.552-.502-.854-1.499-.851-2.174.006-1.285.918-2.042 2.08-2.516l1.099 1.724c-.478.165-.751.36-.752.568-.004.976 7.422 1.644 13.102 1.572 5.681-.07 12.545-.538 12.551-1.5 0-.291-.519-.565-1.422-.781l1.094-1.712c1.472.457 2.757 1.34 2.754 2.868-.014 2.598-3.32 2.993-5.465 3.284" fill="#FFF"/>
    <path d="M254.509 15.184c1.586-1.832-.821-6.518-5.376-10.465C244.576.774 239.596-.94 238.007.892c-1.587 1.832.821 6.518 5.378 10.463 4.555 3.946 9.537 5.662 11.124 3.829M194.246 327.865c-1.495-14.384 31.462-35.216 23.004-35.883-18.208 1.041-27.27 21.338-36.431 42.596-3.357 7.791-14.844 41.013-22.378 36.923-7.532-4.088 9.765-31.407 14.613-47.631-5.594 4.102-26.109 20.041-31.396 5.114-8.5 7.219-26.663 11.13-24.614-7.833-4.522 8.01-14.671 19.193-26.853 14.546-15.998-6.101 9.27-57.062 15.553-54.491 6.284 2.57-1.268 14.179-3.246 18.687-4.35 9.921-9.375 22.393-6.018 24.946 5.751 4.374 21.401-16.547 21.749-17.007 2.927-3.867 11.266-29.166 17.987-26.261 6.721 2.905-16.764 36.308-7.983 42.937 1.771 1.338 9.017-.825 13.425-5.594 2.852-3.085 1.871-9.918 11.378-32.59 9.507-22.671 17.98-50.905 24.5-48.754 6.52 2.15 1.146 16.641-1.193 22.043-10.976 25.354-29.956 67.241-21.005 64.07 8.951-3.17 13.612-3.356 22.377-13.613 8.765-10.257 8.361-27.152 14.203-26.793 5.844.36 4.863 5.777 3.446 9.902 5.75-6.58 27.256-20.438 32.448-6.713 6.15 16.249-30.769 39.72-21.564 38.523 8.975-1.167 23.515-10.376 29.723-18.749l17.088-153.626s-17.195 14.23-126.589 14.23c-109.395 0-124.811-13.934-124.811-13.934l14.548 140.224c7.722-21.947 26.059-66.339 54.963-64.849 13.148.678 30.7 25.995 15.665 26.853-6.364.362-7.01-12.637-14.546-14.546-5.438-1.378-13.009 3.043-17.902 7.833-9.758 9.55-30.745 47.229-27.972 66.014 3.533 23.949 33.048-8.322 38.042-17.903 3.517-6.749 5.893-26.745 13.585-24.647 7.693 2.098-.671 22.734-6.247 40.979-6.264 20.487-9.557 42.098-17.408 39.612-7.852-2.484 4.938-28.932 4.475-33.566-7.38 6.809-20.976 24.047-38.37 15.515l9.035 87.078s24.013 18.973 96.35 18.973c72.337 0 97.239-18.677 97.239-18.677l11.219-100.857c-9.179 8.938-38.229 24.81-40.089 6.919" fill="#D34A47"/>
  </symbol>

  <symbol fill="currentColor" viewBox="0 -0.5 25 25" id="jquery">
    <path d="m1.582 5.638c-2.206 3.17-1.931 7.294-.246 10.663.04.08.08.16.123.24.026.05.051.102.08.151.015.03.033.059.049.087.029.054.058.105.088.16q.08.138.16.275c.03.05.06.101.092.151q.091.147.186.292c.026.042.052.08.08.122.088.131.178.262.27.39l.008.01c.014.021.031.041.046.062.08.11.16.22.246.328l.093.118q.112.141.228.28l.087.104c.103.122.209.24.32.362l.006.006.012.013c.106.115.214.228.32.34l.103.104c.085.085.17.169.258.252.035.034.07.068.106.1.116.11.234.217.353.32.002.002.003.004.006.005.02.018.042.035.062.052q.16.137.32.271l.133.106q.132.106.267.209l.143.109c.099.073.199.145.3.214.037.026.072.052.11.08l.03.022c.096.066.194.13.291.193.042.028.08.057.126.08.15.094.302.189.456.279l.126.071c.113.066.226.13.342.192.062.034.126.066.189.098.08.043.16.086.245.127l.057.027.1.049q.192.092.388.18l.08.037q.224.098.453.189l.11.043c.141.054.284.108.427.16l.054.018c.16.055.32.106.48.156l.115.034c.128.046.292.094.461.132l.031.006c10.667 1.945 13.766-6.41 13.766-6.41-2.602 3.39-7.222 4.285-11.6 3.289-.166-.038-.326-.089-.489-.137l-.122-.037q-.24-.073-.47-.153l-.065-.023c-.139-.049-.278-.101-.414-.154l-.116-.046c-.15-.059-.3-.122-.448-.186l-.09-.04c-.127-.058-.253-.115-.378-.175l-.109-.053c-.098-.048-.195-.098-.292-.149-.065-.034-.131-.066-.195-.102-.118-.063-.234-.13-.35-.197l-.118-.066c-.154-.09-.306-.185-.456-.279-.042-.026-.08-.054-.123-.08-.109-.07-.218-.142-.325-.216-.035-.023-.07-.05-.105-.074q-.155-.109-.307-.222c-.046-.034-.091-.069-.136-.103-.093-.071-.186-.142-.277-.217l-.123-.099c-.116-.096-.231-.191-.345-.29l-.038-.032c-.122-.108-.24-.218-.362-.33l-.102-.098q-.133-.126-.26-.255l-.102-.102q-.16-.167-.32-.338l-.016-.017c-.11-.121-.218-.244-.324-.369l-.083-.102c-.08-.095-.16-.191-.233-.288-.029-.034-.058-.07-.086-.106-.092-.119-.182-.24-.27-.358-2.43-3.314-3.303-7.886-1.36-11.64z"/>
    <path d="m8.429 2.966c-.754 1.166-1.202 2.592-1.202 4.121 0 1.347.347 2.613.958 3.714l-.02-.039c.235.457.469.843.727 1.21l-.022-.032c.244.387.515.723.82 1.024l.001.001c.115.126.235.25.358.371.031.032.062.062.094.094.119.115.24.229.366.339.005.004.01.01.015.013.138.122.282.24.427.353l.097.076c.146.112.294.222.446.326l.013.01c.067.046.136.09.204.134.033.022.064.044.097.064.109.07.219.138.331.203l.046.027c.097.056.194.11.293.16.034.019.069.036.104.054.068.035.136.071.205.106l.03.014c.141.07.282.136.427.199.031.014.062.026.094.039.115.049.233.097.35.142l.15.055c.106.039.214.076.32.112l.146.046c.126.048.281.094.441.13l.024.004c8.236 1.365 10.138-4.977 10.138-4.977-1.714 2.468-5.034 3.646-8.575 2.727-.16-.042-.312-.086-.466-.135-.047-.014-.094-.03-.14-.046-.11-.035-.218-.074-.326-.113l-.147-.054c-.118-.046-.235-.093-.351-.142-.032-.014-.064-.026-.094-.04-.146-.063-.289-.13-.43-.199-.073-.036-.144-.074-.215-.11l-.124-.064q-.138-.075-.273-.154c-.021-.012-.043-.024-.065-.037q-.167-.098-.33-.202c-.034-.022-.066-.045-.099-.066-.072-.046-.143-.094-.214-.142-.152-.105-.299-.214-.445-.326l-.1-.08c-1.549-1.211-2.718-2.843-3.34-4.723l-.02-.07c-.236-.694-.373-1.494-.373-2.325 0-1.338.353-2.594.972-3.679l-.019.037z"/>
    <path d="m14.188.97c-.504.747-.804 1.668-.804 2.659 0 .715.156 1.393.436 2.002l-.012-.03c.73 1.627 2.059 2.876 3.699 3.484l.045.015c.068.026.135.048.205.071l.09.028c.078.029.176.058.276.081l.017.003c4.547.88 5.781-2.334 6.11-2.806-1.081 1.556-2.896 1.929-5.124 1.389-.176-.043-.37-.106-.539-.167-.262-.093-.474-.183-.679-.283l.039.017c-.428-.209-.795-.436-1.136-.697l.016.012c-1.994-1.513-3.232-4.4-1.931-6.749z"/>
  </symbol>

  <symbol viewBox="0 0 24 24" id="js">
    <g fill="none" fill-rule="evenodd">
      <rect width="24" height="24" fill="#F1DC50"/>
      <path stroke="#333" stroke-width="2" d="M12,11 C12,15.749205 12,18.4158717 12,19 C12,19.8761925 11.4771235,21 10,21 C7.61461794,21 7.5,19 7.5,19 M20.7899648,13.51604 C20.1898831,12.5053467 19.3944074,12 18.4035378,12 C16.8563489,12 16,13 16,14 C16,15 16.5,16 18.5084196,16.5 C19.7864643,16.8181718 21,17.5 21,19 C21,20.5 19.6845401,21 18.5,21 C16.9861609,21 15.9861609,20.3333333 15.5,19"/>
    </g>
  </symbol>

  <symbol version="1.1" xmlns:xlink="http://www.w3.org/1999/xlink" preserveAspectRatio="xMidYMid" viewBox="0 0 256 256" id="svg">
    <g>
      <path d="M245.23538,153.523831 C259.246873,139.512338 259.246423,116.713014 245.23493,102.70107 C238.447775,95.9134648 229.422873,92.1757746 219.823775,92.1757746 C217.544563,92.1757746 215.300507,92.3835493 213.111887,92.7932394 C222.650141,86.2688451 228.831099,75.2978028 228.831099,63.0985915 C228.831099,43.2829296 212.709859,27.1616901 192.894197,27.1616901 C180.670648,27.1616901 169.680676,33.3674366 163.161239,42.9376901 C165.31831,31.5605634 161.934873,19.4010141 153.291718,10.7578592 C146.504563,3.97025352 137.479662,0.232112676 127.880563,0.232112676 C118.281465,0.232112676 109.256563,3.97025352 102.469408,10.7578592 C93.8258028,19.4010141 90.4428169,31.5610141 92.5998873,42.9381408 C86.0804507,33.3678873 75.0900282,27.1616901 62.8664789,27.1616901 C43.0508169,27.1616901 26.9295775,43.2829296 26.9295775,63.0985915 C26.9295775,75.2982535 33.1100845,86.2688451 42.648338,92.7927887 C40.4597183,92.3835493 38.2165634,92.1757746 35.9369014,92.1757746 C26.3378028,92.1757746 17.3133521,95.9139155 10.5257465,102.701521 C3.73814085,109.489127 0,118.514028 0,128.112676 C0,137.711775 3.73814085,146.736225 10.5257465,153.524282 C17.3133521,160.311437 26.3382535,164.049577 35.9369014,164.049577 C38.2161127,164.049577 40.4592676,163.841803 42.648338,163.432113 C33.1100845,169.956507 26.9295775,180.927549 26.9295775,193.126761 C26.9295775,212.942423 43.0508169,229.063211 62.8664789,229.063211 C75.0900282,229.063211 86.0809014,222.857465 92.5998873,213.287211 C90.4428169,224.664789 93.8262535,236.824789 102.469408,245.467944 C109.257014,252.255099 118.281915,255.993239 127.880563,255.993239 C137.479662,255.993239 146.504563,252.255099 153.291718,245.467493 C161.934873,236.824338 165.317859,224.663887 163.160789,213.286761 C169.680225,222.857014 180.670648,229.063211 192.894197,229.063211 C212.709859,229.063211 228.831099,212.942423 228.831099,193.126761 C228.831099,180.927549 222.650141,169.956507 213.112338,163.432113 C215.300958,163.841803 217.544563,164.049577 219.823775,164.049577 C229.422873,164.049577 238.447775,160.311437 245.23538,153.523831" fill="#000000"/>
      <path d="M234.391437,113.538254 C226.34231,105.489577 213.292169,105.489577 205.243042,113.538254 L163.05893,113.538254 L192.887887,83.7097465 C204.270873,83.7097465 213.498592,74.4820282 213.498592,63.0985915 C213.498592,51.7156056 204.270873,42.4874366 192.887887,42.4874366 C181.504451,42.4874366 172.276732,51.7156056 172.276732,63.0985915 L142.448225,92.9275493 L142.448225,50.7434366 C150.496901,42.6943099 150.496901,29.644169 142.447775,21.5950423 C134.398648,13.5459155 121.348507,13.5459155 113.29938,21.5950423 C105.250254,29.644169 105.250254,42.6943099 113.29938,50.7434366 L113.29938,92.9275493 L83.4708732,63.0985915 C83.4708732,51.7156056 74.2431549,42.4874366 62.8597183,42.4874366 C51.4767324,42.4874366 42.2485634,51.7156056 42.2485634,63.0985915 C42.2485634,74.4820282 51.4767324,83.7097465 62.8597183,83.7097465 L92.6882254,113.538254 L50.5045634,113.538254 C42.4549859,105.489127 29.4048451,105.489577 21.3557183,113.538704 C13.3065915,121.587831 13.3065915,134.637972 21.3557183,142.687099 C29.4048451,150.736225 42.4554366,150.736225 50.5045634,142.687099 L92.6882254,142.687099 L62.8597183,172.515606 C51.4767324,172.515606 42.2485634,181.743324 42.2485634,193.126761 C42.2485634,204.509746 51.4767324,213.737915 62.8597183,213.737915 C74.2431549,213.737915 83.4708732,204.509746 83.4708732,193.126761 L113.29938,163.298254 L113.29938,205.481915 C105.250254,213.531042 105.250254,226.581634 113.29938,234.630761 C121.348507,242.679887 134.399099,242.679887 142.448225,234.630761 C150.496901,226.581634 150.496901,213.531042 142.448225,205.481915 L142.448225,163.298254 L172.276732,193.126761 C172.276732,204.509746 181.504451,213.737915 192.887887,213.737915 C204.270873,213.737915 213.498592,204.509746 213.498592,193.126761 C213.498592,181.743324 204.270873,172.515606 192.887887,172.515606 L163.05893,142.687099 L205.243042,142.687099 C213.292169,150.736225 226.34231,150.736225 234.391437,142.687099 C242.440563,134.637972 242.440563,121.58738 234.391437,113.538254" fill="#FFB13B"/>
    </g>
  </symbol>

  <symbol aria-label="CSS3" role="img" viewBox="0 0 512 512" id="css3">
    <path fill="#264de4" d="M72 460L30 0h451l-41 460-184 52"/>
    <path fill="#2965f1" d="M256 37V472l149-41 35-394"/>
    <path fill="#ebebeb" d="m114 94h142v56H119m5 58h132v57H129m3 28h56l4 45 64 17v59L139 382"/>
    <path fill="#fff" d="m256 208v57h69l-7 73-62 17v59l115-32 26-288H256v56h80l-5.5 58Z"/>
  </symbol>

  <symbol fill="currentColor" viewBox="0 0 32 32" id="scss">
    <path d="M16.171,18.7c-.481.221-1.008.509-2.063,1.088-.4.225-.818.45-1.207.662-.027-.027-.055-.061-.082-.089-2.087-2.23-5.947-3.805-5.783-6.8.061-1.091.436-3.955,7.413-7.433,5.742-2.83,10.311-2.046,11.1-.307C26.683,8.3,23.1,12.913,17.17,13.582a4.469,4.469,0,0,1-3.751-.948c-.314-.341-.361-.361-.477-.293-.191.1-.068.409,0,.586a3.5,3.5,0,0,0,2.141,1.684,11.4,11.4,0,0,0,6.956-.689c3.594-1.391,6.4-5.258,5.578-8.5-.825-3.287-6.281-4.371-11.443-2.537a26,26,0,0,0-8.79,5.047c-2.844,2.66-3.294,4.972-3.11,5.94.662,3.437,5.4,5.674,7.3,7.331-.1.055-.184.1-.259.143-.948.471-4.562,2.36-5.463,4.358-1.023,2.264.164,3.887.948,4.105a5.832,5.832,0,0,0,6.281-2.544,6.3,6.3,0,0,0,.559-5.8,5.03,5.03,0,0,1,.716-.477c.484-.286.945-.568,1.354-.786l0,0a10.475,10.475,0,0,1,4.475-.989c3.246.382,3.887,2.407,3.764,3.26a2.157,2.157,0,0,1-1.03,1.459c-.225.143-.3.191-.28.293.027.15.136.143.327.116a2.535,2.535,0,0,0,1.766-2.257c.1-2-1.807-4.194-5.183-4.174a7.753,7.753,0,0,0-2.946.587q-.225.093-.437.2Zm-4.825,7.839c-1.078,1.173-2.578,1.616-3.226,1.241-.7-.4-.423-2.135.9-3.376a17.18,17.18,0,0,1,2.53-1.889c.157-.1.389-.232.668-.4.048-.027.075-.041.075-.041l.164-.1A4.658,4.658,0,0,1,11.346,26.539Z"/>
  </symbol>

  <symbol viewBox="0 0 24 24" id="figma">
    <g fill="none" fill-rule="evenodd" transform="translate(4)">
      <circle cx="12" cy="12" r="4" fill="#19BCFE"/>
      <path fill="#09CF83" d="M4,24 C6.209139,24 8,22.209139 8,20 C8,19.3969461 8,18.0636128 8,16 C6.20303877,16 4.86970543,16 4,16 C1.790861,16 0,17.790861 0,20 C0,22.209139 1.790861,24 4,24 Z"/>
      <path fill="#A259FF" d="M4,16 C4.73637967,16 6.069713,16 8,16 L8,8 C6.069713,8 4.73637967,8 4,8 C1.790861,8 0,9.790861 0,12 C0,14.209139 1.790861,16 4,16 Z"/>
      <path fill="#F24E1E" d="M4,8 C4.73637967,8 6.069713,8 8,8 L8,0 C6.069713,0 4.73637967,0 4,0 C1.790861,0 0,1.790861 0,4 C0,6.209139 1.790861,8 4,8 Z"/>
      <path fill="#FF7262" d="M12,8 L8,8 L8,8 L8,0 L12,0 L12,0 C14.209139,0 16,1.790861 16,4 C16,6.209139 14.209139,8 12,8 Z"/>
    </g>
  </symbol>

  <symbol version="1.1" xmlns:xlink="http://www.w3.org/1999/xlink" preserveAspectRatio="xMidYMid" viewBox="0 0 256 256" id="git">
    <g>
      <path d="M251.172245,116.593517 L139.398753,4.82845302 C132.966433,-1.60948434 122.525852,-1.60948434 116.085106,4.82845302 L92.8753863,28.0381721 L122.317995,57.4807809 C129.16041,55.1690784 137.005593,56.7195763 142.460425,62.1744081 C147.940536,67.6629464 149.479799,75.5755422 147.111919,82.4404282 L175.487156,110.815665 C182.352042,108.450594 190.273064,109.98143 195.755985,115.472777 C203.418591,123.132574 203.418591,135.547794 195.755985,143.213209 C188.09057,150.878624 175.67535,150.878624 168.007126,143.213209 C162.243319,137.443783 160.81922,128.977839 163.737639,121.877008 L137.275245,95.4146135 L137.272436,165.052198 C139.140337,165.979126 140.904309,167.212221 142.460425,168.762719 C150.123031,176.422516 150.123031,188.837736 142.460425,196.508768 C134.79501,204.171375 122.374173,204.171375 114.719993,196.508768 C107.057387,188.837736 107.057387,176.422516 114.719993,168.762719 C116.613174,166.872347 118.804095,165.442631 121.141077,164.481996 L121.141077,94.1955625 C118.804095,93.2405457 116.615983,91.8192558 114.719993,89.9148396 C108.914052,84.1173254 107.518042,75.5980132 110.492639,68.4690928 L81.4713611,39.4421974 L4.83125614,116.076685 C-1.60949009,122.52024 -1.60949009,132.960821 4.83125614,139.398759 L116.604747,251.166631 C123.039876,257.604569 133.477648,257.604569 139.921203,251.166631 L251.172245,139.9184 C257.61018,133.477654 257.61018,123.031455 251.172245,116.593517" fill="#DE4C36"/>
    </g>
  </symbol>

  <symbol id="github" viewBox="0 0 72 72">
    <g id="color">
      <path fill="#d0cfce" stroke="none" d="m 29.043969,61.611125 c 0,-0.927468 -0.03474,-3.979828 -0.03474,-7.764543 0,-2.646092 0.874013,-4.372735 1.862956,-5.252093 -6.227673,-0.721661 -12.778757,-3.153928 -12.778757,-14.034982 0,-3.0978 1.095858,-5.631632 2.886648,-7.614865 -0.285992,-0.71899 -1.253553,-3.605637 0.277973,-7.513301 0,0 2.354755,-0.764427 7.716434,2.90803 2.23715,-0.628113 4.637344,-0.946179 7.026845,-0.951526 2.384156,0.0054 4.784349,0.323413 7.026846,0.951526 5.356333,-3.672457 7.711088,-2.90803 7.711088,-2.90803 1.531527,3.907664 0.569311,6.794311 0.277974,7.513301 1.796134,1.983233 2.8813,4.514393 2.8813,7.614865 0,10.905109 -6.559101,13.307975 -12.816176,14.008253 1.013001,0.882032 1.908395,2.611346 1.908395,5.262785 0,3.792732 -0.03474,6.85044 -0.03474,7.78058 0,0.761755 0.505162,1.641114 1.929775,1.368486 11.145665,-3.757987 19.17749,-14.395813 19.17749,-26.931342 0,-15.678767 -12.567603,-28.3880299 -28.067291,-28.3880299 -15.494341,0 -28.0592708,12.7065899 -28.0592708,28.3880299 0,12.540875 8.0398428,23.181374 19.2015438,26.934015 1.395212,0.261936 1.905721,-0.614749 1.905721,-1.371159 z"/>
    </g>
    <g id="hair"/>
    <g id="skin"/>
    <g id="skin-shadow"/>
    <g id="line">
      <path fill="none" stroke="#000000" stroke-linecap="round" stroke-linejoin="round" stroke-miterlimit="10" stroke-width="2" d="m 29.043969,61.611125 c 0,-0.927468 -0.03474,-3.979828 -0.03474,-7.764543 0,-2.646092 0.874013,-4.372735 1.862956,-5.252093 -6.227673,-0.721661 -12.778757,-3.153928 -12.778757,-14.034982 0,-3.0978 1.095858,-5.631632 2.886648,-7.614865 -0.285992,-0.71899 -1.253553,-3.605637 0.277973,-7.513301 0,0 2.354755,-0.764427 7.716434,2.90803 2.23715,-0.628113 4.637344,-0.946179 7.026845,-0.951526 2.384156,0.0054 4.784349,0.323413 7.026846,0.951526 5.356333,-3.672457 7.711088,-2.90803 7.711088,-2.90803 1.531527,3.907664 0.569311,6.794311 0.277974,7.513301 1.796134,1.983233 2.8813,4.514393 2.8813,7.614865 0,10.905109 -6.559101,13.307975 -12.816176,14.008253 1.013001,0.882032 1.908395,2.611346 1.908395,5.262785 0,3.792732 -0.03474,6.85044 -0.03474,7.78058 0,0.761755 0.505162,1.641114 1.929775,1.368486 11.145665,-3.757987 19.17749,-14.395813 19.17749,-26.931342 0,-15.678767 -12.567603,-28.3880299 -28.067291,-28.3880299 -15.494341,0 -28.0592708,12.7065899 -28.0592708,28.3880299 0,12.540875 8.0398428,23.181374 19.2015438,26.934015 1.395212,0.261936 1.905721,-0.614749 1.905721,-1.371159 z"/>
      <path fill="none" stroke="#000000" stroke-linecap="round" stroke-linejoin="round" stroke-miterlimit="10" stroke-width="2" d="m 16.289268,48.089327 c 2.56858,0.780462 3.58158,1.635766 4.789693,3.661764 1.205444,2.025998 2.619366,4.287204 7.932933,2.998904"/>
    </g>
  </symbol>

    <symbol version="1.1" viewBox="0 -22 256 256" xmlns:xlink="http://www.w3.org/1999/xlink" preserveAspectRatio="xMidYMid" id="bem">
    <path d="M0,32.6915521 L59.8506876,32.6915521 L59.8506876,50.2946955 L0,50.2946955 L0,32.6915521 Z M0,0 L59.8506876,0 L59.8506876,17.6031434 L0,17.6031434 L0,0 Z M107.379175,65.1316306 L0,65.1316306 L0,82.7347741 L103.355599,82.7347741 C114.671906,82.7347741 141.076621,82.9862475 150.884086,98.8290766 L150.884086,89.021611 C146.10609,73.4302554 132.023576,65.1316306 107.379175,65.1316306 L107.379175,65.1316306 Z M107.630648,97.8231827 L1.42108547e-14,97.8231827 L1.42108547e-14,115.426326 L103.355599,115.426326 C128.502947,115.426326 144.345776,116.43222 150.884086,119.952849 L150.884086,112.157171 C145.854617,99.8349705 124.730845,97.8231827 107.630648,97.8231827 L107.630648,97.8231827 Z M107.379175,180.80943 L0,180.80943 L0,163.206287 L103.355599,163.206287 C114.671906,163.206287 141.076621,162.954813 150.884086,147.111984 L150.884086,156.91945 C146.10609,172.510806 132.023576,180.80943 107.379175,180.80943 L107.379175,180.80943 Z M107.630648,148.117878 L1.42108547e-14,148.117878 L1.42108547e-14,130.514735 L103.355599,130.514735 C128.502947,130.514735 144.345776,129.508841 150.884086,125.988212 L150.884086,133.78389 C145.854617,146.10609 124.730845,148.117878 107.630648,148.117878 L107.630648,148.117878 Z M177.037328,211.237721 L256,211.237721 L256,200.424361 L179.300589,200.424361 C172.510806,200.424361 156.416503,200.172888 150.632613,190.868369 L150.632613,196.903733 C153.398821,206.208251 161.948919,211.237721 177.037328,211.237721 L177.037328,211.237721 Z M176.785855,191.371316 L255.748527,191.371316 L255.748527,180.557957 L179.300589,180.557957 C163.960707,180.557957 154.404715,180.05501 150.632613,177.791749 L150.632613,182.569745 C153.650295,190.113949 166.475442,191.371316 176.785855,191.371316 L176.785855,191.371316 Z">
</path>
	</symbol></symbol><symbol viewBox="0 0 256 220.8" id="vue">
	<g>
		<path d="M204.8,0 L256,0 L128,220.8 L0,0 L50.56,0 L97.92,0 L128,51.2 L157.44,0 L204.8,0 Z" fill="#41B883"/>
		<path d="M0,0 L128,220.8 L256,0 L204.8,0 L128,132.48 L50.56,0 L0,0 Z" fill="#41B883"/>
		<path d="M50.56,0 L128,133.12 L204.8,0 L157.44,0 L128,51.2 L97.92,0 L50.56,0 Z" fill="#35495E"/>
	</g>
</symbol><symbol viewBox="0 0 256 256" id="yarn-seeklogo">
	<g>
		<path d="M128,0 C57.3281853,0 0,57.3281853 0,128 C0,198.671815 57.3281853,256 128,256 C198.671815,256 256,198.671815 256,128 C256,57.3281853 198.671815,0 128,0" fill="#368FB9"/>
		<path d="M203.317375,174.060232 C195.410039,175.938224 191.40695,177.667954 181.621622,184.043243 C166.350579,193.927413 149.646332,198.523552 149.646332,198.523552 C149.646332,198.523552 148.262548,200.599228 144.259459,201.538224 C137.340541,203.218533 111.295753,204.651737 108.923552,204.701158 C102.548263,204.750579 98.6440154,203.07027 97.5567568,200.450965 C94.2455598,192.543629 102.301158,189.08417 102.301158,189.08417 C102.301158,189.08417 100.522008,187.996911 99.4841699,187.008494 C98.5451737,186.069498 97.5567568,184.191506 97.2602317,184.883398 C96.0247104,187.898069 95.3822394,195.261776 92.0710425,198.572973 C87.5243243,203.169112 78.9250965,201.637066 73.834749,198.96834 C68.2501931,196.003089 74.2301158,189.034749 74.2301158,189.034749 C74.2301158,189.034749 71.215444,190.8139 68.7938224,187.156757 C66.619305,183.796139 64.5930502,178.06332 65.1366795,170.996139 C65.7297297,162.940541 74.7243243,155.132046 74.7243243,155.132046 C74.7243243,155.132046 73.1428571,143.221622 78.3320463,131.014672 C83.027027,119.894981 95.6787645,110.949807 95.6787645,110.949807 C95.6787645,110.949807 85.0532819,99.1876448 89.0069498,88.611583 C91.576834,81.6926641 92.6146718,81.7420849 93.4548263,81.4455598 C96.4200772,80.3088803 99.2864865,79.0733591 101.411583,76.7505792 C112.037066,65.2849421 125.578378,67.4594595 125.578378,67.4594595 C125.578378,67.4594595 132.003089,47.9382239 137.933591,51.7436293 C139.762162,52.9297297 146.335135,67.5583012 146.335135,67.5583012 C146.335135,67.5583012 153.352896,63.4563707 154.143629,64.988417 C158.393822,73.2416988 158.888031,89.0069498 157.010039,98.5945946 C153.847104,114.409266 145.939768,122.909653 142.776834,128.247104 C142.035521,129.482625 151.27722,133.386873 157.10888,149.54749 C162.495753,164.324324 157.701931,176.728958 158.542085,178.112741 C158.690347,178.359846 158.739768,178.458687 158.739768,178.458687 C158.739768,178.458687 164.917375,178.952896 177.322008,171.292664 C183.944402,167.190734 191.802317,162.594595 200.74749,162.495753 C209.396139,162.34749 209.840927,172.478764 203.317375,174.060232 L203.317375,174.060232 Z M215.079537,166.795367 C214.189961,159.777606 208.259459,154.934363 200.648649,155.033205 C189.281853,155.181467 179.743629,161.062548 173.417761,164.966795 C170.946718,166.498842 168.821622,167.635521 166.99305,168.475676 C167.388417,162.742857 167.042471,155.230888 164.07722,146.977606 C160.469498,137.093436 155.626255,131.014672 152.166795,127.505792 C156.169884,121.674131 161.655598,113.173745 164.225483,100.027799 C166.449421,88.8092664 165.757529,71.3637066 160.667181,61.5783784 C159.629344,59.6015444 157.899614,58.1683398 155.725097,57.5752896 C154.835521,57.3281853 153.155212,56.8339768 149.844015,57.772973 C144.85251,47.4440154 143.12278,46.3567568 141.788417,45.4671815 C139.020849,43.6880309 135.759073,43.2926641 132.694981,44.4293436 C128.59305,45.9119691 125.08417,49.8656371 121.772973,56.8833977 C121.278764,57.9212355 120.833977,58.9096525 120.43861,59.8980695 C114.162162,60.3428571 104.277992,62.6162162 95.9258687,71.6602317 C94.8880309,72.7969112 92.8617761,73.6370656 90.7366795,74.4277992 L90.7861004,74.4277992 C86.4370656,75.9598456 84.4602317,79.5181467 82.03861,85.9428571 C78.6779923,94.9374517 82.1374517,103.783784 85.5474903,109.516602 C80.9019305,113.667954 74.7243243,120.290347 71.4625483,128.049421 C67.4100386,137.637066 66.965251,147.027027 67.1135135,152.117375 C63.6540541,155.774517 58.3166023,162.644015 57.7235521,170.353668 C56.9328185,181.127413 60.8370656,188.441699 62.5667954,191.110425 C63.0610039,191.901158 63.6046332,192.543629 64.1976834,193.1861 C64,194.520463 63.9505792,195.953668 64.2471042,197.436293 C64.8895753,200.895753 67.0640927,203.712741 70.3752896,205.491892 C76.8988417,208.951351 85.992278,210.433977 93.0100386,206.925097 C95.5305019,209.593822 100.126641,212.163707 108.478764,212.163707 L108.972973,212.163707 C111.098069,212.163707 138.081853,210.730502 145.939768,208.803089 C149.448649,207.962934 151.87027,206.480309 153.451737,205.145946 C158.492664,203.564479 172.429344,198.820077 185.57529,190.319691 C194.866409,184.290347 198.078764,183.005405 204.997683,181.325097 C211.718919,179.694208 215.919691,173.566023 215.079537,166.795367 L215.079537,166.795367 Z" fill="#FFFFFF"/>
	</g>
</symbol>
<symbol id="webpack" viewBox="0 0 256 289.71466" >
	<g>
		<polygon fill="#FFFFFF" points="128 0.0483018868 256 72.4528302 256 217.310189 128 289.714717 0 217.310189 0 72.4528302">

</polygon>
		<path d="M233.153208,212.286792 L132.250566,269.427925 L132.250566,224.990189 L195.139623,190.357736 L233.153208,212.286792 Z M240.060377,206.055849 L240.060377,86.6535849 L203.157736,107.954717 L203.157736,184.754717 L240.060377,206.055849 Z M22.4603774,212.286792 L123.363019,269.379623 L123.363019,224.941887 L60.4739623,190.357736 L22.4603774,212.286792 L22.4603774,212.286792 Z M15.5532075,206.055849 L15.5532075,86.6535849 L52.4558491,107.954717 L52.4558491,184.754717 L15.5532075,206.055849 L15.5532075,206.055849 Z M19.8520755,78.925283 L123.363019,20.3833962 L123.363019,63.3720755 L57.0445283,99.84 L56.5132075,100.129811 L19.8520755,78.925283 L19.8520755,78.925283 Z M235.713208,78.925283 L132.250566,20.3833962 L132.250566,63.3720755 L198.520755,99.8883019 L199.052075,100.178113 L235.713208,78.925283 L235.713208,78.925283 Z" fill="#8ED6FB">

</path>
		<path d="M123.363019,214.846792 L61.3433962,180.697358 L61.3433962,113.123019 L123.363019,148.914717 L123.363019,214.846792 L123.363019,214.846792 Z M132.250566,214.846792 L194.270189,180.74566 L194.270189,113.123019 L132.250566,148.914717 L132.250566,214.846792 Z M65.4973585,105.298113 L127.806792,71.0520755 L190.067925,105.298113 L127.806792,141.234717 L65.4973585,105.298113 L65.4973585,105.298113 Z" fill="#1C78C0">

</path>
	</g>
</symbol></svg>