<?xml version="1.0" standalone="no"?>
<!DOCTYPE svg PUBLIC "-//W3C//DTD SVG 20010904//EN"
 "http://www.w3.org/TR/2001/REC-SVG-20010904/DTD/svg10.dtd">
<svg version="1.0" xmlns="http://www.w3.org/2000/svg"
 width="278.000000pt" height="278.000000pt" viewBox="0 0 278.000000 278.000000"
 preserveAspectRatio="xMidYMid meet">

<g transform="translate(0.000000,278.000000) scale(0.100000,-0.100000)"
fill="#000000" stroke="none">
<path d="M1165 2765 c-169 -30 -338 -90 -470 -167 -347 -202 -588 -535 -672
-928 -26 -121 -26 -439 0 -560 65 -304 227 -582 454 -775 184 -157 396 -261
633 -312 121 -26 439 -26 560 0 398 85 732 329 933 682 82 143 142 324 168
504 15 106 6 360 -16 461 -120 549 -534 963 -1085 1085 -104 23 -398 29 -505
10z m-395 -960 c0 -129 3 -235 6 -235 4 0 24 16 46 36 62 56 131 84 209 84
129 0 220 -56 260 -158 21 -54 22 -77 27 -384 l4 -328 -111 0 -111 0 0 300 c0
334 -3 354 -62 390 -45 27 -112 26 -168 -2 -34 -17 -51 -35 -70 -73 -25 -49
-25 -53 -28 -332 l-4 -283 -104 0 -104 0 0 610 0 610 105 0 105 0 0 -235z
m880 0 c0 -129 3 -235 6 -235 4 0 24 16 46 36 62 56 131 84 209 84 129 0 220
-56 260 -158 21 -54 22 -77 27 -384 l4 -328 -111 0 -111 0 0 300 c0 334 -3
354 -62 390 -45 27 -112 26 -168 -2 -34 -17 -51 -35 -70 -73 -25 -49 -25 -53
-28 -332 l-4 -283 -104 0 -104 0 0 610 0 610 105 0 105 0 0 -235z"/>
</g>
</svg>
